<?xml version="1.0" standalone="no"?>
<!DOCTYPE svg PUBLIC "-//W3C//DTD SVG 20010904//EN"
 "http://www.w3.org/TR/2001/REC-SVG-20010904/DTD/svg10.dtd">
<svg version="1.0" xmlns="http://www.w3.org/2000/svg"
 width="512.000000pt" height="512.000000pt" viewBox="0 0 512.000000 512.000000"
 preserveAspectRatio="xMidYMid meet">

<g transform="translate(0.000000,512.000000) scale(0.100000,-0.100000)"
fill="#000000" stroke="none">
<path d="M144 4761 c-47 -12 -87 -39 -114 -79 -20 -28 -25 -48 -25 -98 0 -54
4 -67 31 -101 59 -74 54 -73 466 -73 366 0 367 0 392 -22 24 -21 54 -136 321
-1228 162 -663 326 -1328 362 -1479 l68 -274 -35 -25 c-154 -113 -240 -280
-240 -465 0 -156 52 -279 165 -393 111 -113 238 -166 395 -166 157 0 283 53
396 166 78 78 133 177 153 274 15 74 14 188 -4 255 -8 32 -15 60 -15 62 0 3
257 5 570 5 314 0 570 -2 570 -4 0 -3 -7 -35 -16 -73 -45 -191 22 -405 170
-540 106 -97 230 -144 382 -144 250 0 465 164 538 410 21 70 21 215 0 295 -44
172 -173 312 -351 384 l-68 27 -1117 5 c-1101 5 -1118 5 -1137 25 -12 13 -35
84 -65 208 -25 104 -46 192 -46 198 0 5 501 9 1308 9 868 0 1319 4 1344 10 49
14 91 50 111 97 21 48 467 1847 467 1884 0 55 -41 121 -95 152 -15 9 -483 13
-1844 17 l-1824 5 -48 197 c-26 108 -60 220 -74 249 -60 118 -190 208 -330
229 -79 11 -714 12 -761 1z m4566 -1043 c-1 -7 -81 -332 -178 -723 l-178 -710
-1279 0 -1278 0 -173 705 c-95 388 -173 713 -173 723 -1 16 83 17 1629 17
1298 0 1630 -3 1630 -12z m-2690 -2620 c24 -13 57 -40 74 -61 26 -32 31 -49
34 -105 3 -56 0 -74 -21 -112 -74 -139 -280 -139 -354 0 -21 38 -24 56 -21
112 3 57 8 73 34 105 67 82 165 106 254 61z m2193 6 c41 -21 85 -62 102 -94
78 -153 -69 -335 -234 -290 -50 13 -119 72 -138 117 -28 68 -10 167 40 222 52
56 164 78 230 45z"/>
</g>

</svg>
