<?xml version="1.0" standalone="no"?>
<!DOCTYPE svg PUBLIC "-//W3C//DTD SVG 20010904//EN"
 "http://www.w3.org/TR/2001/REC-SVG-20010904/DTD/svg10.dtd">
<svg version="1.0" xmlns="http://www.w3.org/2000/svg"
 width="512.000000pt" height="512.000000pt" viewBox="0 0 512.000000 512.000000"
 preserveAspectRatio="xMidYMid meet">

<g transform="translate(0.000000,512.000000) scale(0.100000,-0.100000)"
fill="#000000" stroke="none">
<path d="M2500 4823 c-43 -30 -2454 -2085 -2472 -2107 -57 -70 -8 -176 82
-176 20 0 47 8 60 17 14 9 553 466 1198 1015 645 550 1179 1001 1187 1004 8 4
80 -51 182 -138 539 -462 2192 -1866 2213 -1881 89 -62 205 41 154 137 -12 22
-193 183 -491 437 l-473 403 0 543 c0 592 0 593 -56 630 -26 16 -54 18 -326
18 l-298 0 -32 -33 -33 -32 -3 -240 c-2 -132 -5 -240 -8 -240 -3 0 -173 144
-378 319 -206 176 -383 324 -394 330 -31 16 -84 13 -112 -6z m1420 -708 c0
-212 -2 -385 -5 -385 -3 0 -73 57 -155 127 l-150 126 0 259 0 258 155 0 155 0
0 -385z"/>
<path d="M2511 4196 c-43 -24 -1988 -1690 -2005 -1718 -49 -80 26 -182 115
-158 20 6 67 37 105 70 38 33 72 60 77 60 4 0 7 -473 7 -1051 l0 -1051 34 -34
34 -34 1682 0 1682 0 34 34 34 34 0 1051 c0 578 3 1051 8 1051 4 0 36 -25 72
-56 82 -72 120 -89 166 -74 66 22 95 104 56 161 -18 28 -1947 1680 -1997 1711
-35 21 -70 23 -104 4z m820 -896 l758 -645 0 -1077 1 -1078 -435 0 -435 0 0
670 0 670 -29 32 -29 33 -585 3 c-372 1 -594 -1 -611 -8 -14 -5 -35 -24 -46
-42 -19 -32 -20 -51 -20 -695 l0 -663 -435 0 -435 0 2 1077 3 1078 760 647
c418 356 764 647 769 645 5 -2 350 -293 767 -647z m-331 -2205 l0 -595 -440 0
-440 0 0 595 0 595 440 0 440 0 0 -595z"/>
</g>

</svg>
