<?xml version="1.0" standalone="no"?>
<!DOCTYPE svg PUBLIC "-//W3C//DTD SVG 20010904//EN"
 "http://www.w3.org/TR/2001/REC-SVG-20010904/DTD/svg10.dtd">
<svg version="1.0" xmlns="http://www.w3.org/2000/svg"
 width="512.000000pt" height="512.000000pt" viewBox="0 0 512.000000 512.000000"
 preserveAspectRatio="xMidYMid meet">

<g transform="translate(0.000000,512.000000) scale(0.100000,-0.100000)"
fill="#000000" stroke="none">
<path d="M2275 4689 c-1256 -370 -1463 -433 -1483 -455 l-22 -25 0 -2077 c1
-1617 3 -2081 13 -2093 7 -9 22 -21 34 -27 31 -17 3455 -17 3486 0 12 6 27 18
34 27 10 12 12 476 13 2093 l0 2077 -24 28 -24 28 -231 3 -231 3 0 395 0 396
-29 29 c-17 16 -40 29 -53 28 -13 0 -680 -193 -1483 -430z m1395 -94 l0 -325
-1102 1 -1103 0 1095 324 c602 178 1098 324 1103 324 4 1 7 -145 7 -324z m510
-2460 l0 -1965 -1620 0 -1620 0 0 1965 0 1965 1620 0 1620 0 0 -1965z"/>
<path d="M2710 3752 c-8 -2 -25 -14 -37 -25 l-23 -20 0 -374 c0 -221 4 -382
10 -392 16 -31 65 -46 101 -30 50 20 59 57 59 231 l1 153 94 -186 c78 -154
100 -189 123 -198 35 -15 74 -6 99 21 17 18 18 48 21 367 2 190 0 361 -3 379
-8 45 -41 72 -85 72 -68 0 -74 -17 -80 -219 l-5 -176 -92 180 c-51 99 -96 186
-101 193 -10 15 -62 31 -82 24z"/>
<path d="M1392 3727 c-22 -23 -22 -27 -22 -396 0 -219 4 -380 10 -390 16 -31
65 -46 101 -30 51 21 59 54 59 261 l0 183 45 -75 c94 -158 147 -161 238 -11
l52 86 5 -202 c4 -172 8 -205 22 -222 37 -43 109 -33 135 19 17 33 19 701 2
749 -13 37 -35 51 -82 51 -44 0 -56 -14 -162 -193 -48 -81 -89 -146 -90 -145
-2 2 -42 68 -90 148 -48 80 -96 155 -108 168 -28 30 -86 30 -115 -1z"/>
<path d="M2159 3724 l-24 -26 -3 -346 c-4 -382 0 -412 48 -437 38 -19 292 -21
330 -2 34 17 55 57 46 91 -12 49 -37 61 -149 66 l-102 5 -3 83 -3 82 93 0 c54
0 103 6 118 13 51 26 62 83 26 132 -12 17 -29 21 -123 25 l-108 5 -3 83 -3 82
86 0 c98 0 149 17 166 54 14 30 5 70 -21 96 -18 18 -34 20 -183 20 -163 0
-164 0 -188 -26z"/>
<path d="M3272 3730 c-11 -11 -24 -35 -27 -53 -4 -18 -5 -156 -3 -307 3 -270
3 -276 28 -324 100 -197 380 -187 465 17 12 30 15 90 15 340 l0 304 -23 21
c-33 31 -87 29 -118 -4 l-24 -26 -3 -281 c-1 -186 -6 -290 -14 -304 -17 -34
-70 -48 -106 -29 -48 25 -52 54 -52 346 0 255 -1 268 -21 294 -26 33 -84 36
-117 6z"/>
<path d="M1135 2104 c-32 -34 -32 -75 -1 -111 l24 -28 1402 0 1402 0 24 28
c31 36 31 77 -1 111 l-24 26 -1401 0 -1401 0 -24 -26z"/>
<path d="M1149 1607 c-46 -35 -50 -88 -10 -128 l29 -29 1392 0 1392 0 29 29
c40 40 36 93 -10 128 -23 18 -2799 18 -2822 0z"/>
<path d="M1139 1081 c-40 -40 -36 -93 10 -128 23 -18 2799 -18 2822 0 46 35
50 88 10 128 l-29 29 -1392 0 -1392 0 -29 -29z"/>
</g>

</svg>
