<?xml version="1.0" standalone="no"?>
<!DOCTYPE svg PUBLIC "-//W3C//DTD SVG 20010904//EN"
 "http://www.w3.org/TR/2001/REC-SVG-20010904/DTD/svg10.dtd">
<svg version="1.0" xmlns="http://www.w3.org/2000/svg"
 width="512.000000pt" height="512.000000pt" viewBox="0 0 512.000000 512.000000"
 preserveAspectRatio="xMidYMid meet">
<g transform="translate(0.000000,512.000000) scale(0.100000,-0.100000)"
fill="#000000" stroke="none">
<path d="M1757 4821 c-230 -76 -425 -362 -478 -704 -15 -95 -6 -293 15 -360
58 -180 190 -302 381 -352 91 -24 255 -29 351 -12 274 50 386 232 371 602 -18
428 -134 708 -334 807 -57 28 -78 33 -157 35 -69 2 -105 -2 -149 -16z m229
-160 c126 -57 205 -232 241 -531 39 -339 -14 -518 -167 -564 -202 -60 -458 -6
-550 117 -62 82 -75 132 -75 292 1 155 14 223 69 355 73 172 181 295 293 336
55 19 140 17 189 -5z"/>
<path d="M3113 4825 c-235 -73 -371 -365 -389 -835 -7 -172 9 -277 55 -375 77
-165 248 -244 501 -231 287 15 459 130 541 363 27 75 37 262 20 370 -53 341
-252 633 -479 703 -74 23 -185 25 -249 5z m263 -186 c107 -64 198 -192 258
-360 45 -125 60 -225 53 -351 -8 -167 -59 -263 -174 -325 -165 -90 -464 -78
-551 22 -75 84 -98 256 -69 505 36 298 114 472 241 532 66 30 169 21 242 -23z"/>
<path d="M630 3635 c-184 -52 -325 -228 -391 -490 -27 -105 -37 -335 -19 -442
15 -95 59 -219 100 -283 38 -60 124 -142 176 -168 94 -47 144 -57 279 -56 102
0 148 5 215 23 230 61 344 174 371 367 13 97 -1 214 -46 379 -92 334 -240 567
-410 647 -83 38 -187 47 -275 23z m205 -169 c30 -13 72 -47 105 -83 176 -190
322 -709 243 -859 -45 -84 -121 -127 -284 -160 -225 -45 -388 20 -467 188 -50
105 -65 198 -59 362 8 222 60 369 172 482 93 94 190 117 290 70z"/>
<path d="M4275 3637 c-163 -55 -294 -204 -396 -452 -53 -130 -104 -317 -119
-437 -36 -283 83 -453 370 -529 115 -31 318 -33 400 -5 87 30 130 55 186 108
131 123 194 303 194 548 0 365 -151 664 -380 751 -69 26 -199 34 -255 16z
m191 -164 c66 -22 159 -116 201 -203 55 -113 75 -200 80 -356 6 -164 -9 -257
-59 -362 -79 -168 -242 -233 -467 -188 -163 33 -239 76 -284 160 -79 150 65
663 242 858 91 100 179 128 287 91z"/>
<path d="M2380 2979 c-309 -80 -591 -339 -678 -621 -64 -205 -169 -313 -352
-363 -151 -40 -284 -120 -407 -243 -334 -336 -331 -901 7 -1243 150 -152 291
-218 486 -226 145 -7 230 14 425 106 263 125 455 172 699 172 244 0 436 -47
699 -172 177 -83 271 -109 396 -109 168 0 316 56 454 170 371 311 423 879 115
1254 -104 126 -297 250 -454 292 -148 39 -237 110 -299 237 -22 45 -52 116
-66 158 -95 277 -391 530 -694 595 -94 20 -240 17 -331 -7z m320 -155 c86 -20
209 -80 291 -142 133 -101 227 -229 275 -377 43 -130 100 -230 173 -304 76
-76 149 -118 276 -156 154 -47 271 -118 366 -224 104 -115 159 -236 179 -394
27 -218 -45 -436 -196 -596 -122 -129 -251 -190 -403 -191 -111 0 -171 17
-335 95 -534 255 -998 255 -1536 -1 -161 -77 -221 -94 -331 -94 -152 1 -281
62 -403 191 -189 200 -251 492 -161 752 59 170 197 323 370 410 28 14 91 37
140 52 126 38 199 79 275 155 73 73 131 174 174 305 48 148 142 276 275 377
78 59 207 123 288 142 78 19 203 19 283 0z"/>
</g>
</svg>
